<svg xmlns="http://www.w3.org/2000/svg" xmlns:xlink="http://www.w3.org/1999/xlink" width="56" height="56" viewBox="0 0 56 56">
  <defs>
    <clipPath id="clip-path">
      <circle id="de8a433a79b618c73909ef3d2c8eeb77" cx="28" cy="28" r="28" fill="none"/>
    </clipPath>
  </defs>
  <g id="グループ_7830" data-name="グループ 7830" transform="translate(-39 -1779)">
    <circle id="de8a433a79b618c73909ef3d2c8eeb77-2" data-name="de8a433a79b618c73909ef3d2c8eeb77" cx="28" cy="28" r="28" transform="translate(39 1779)" fill="#5e7193"/>
    <g id="マスクグループ_3" data-name="マスクグループ 3" transform="translate(39 1779)" clip-path="url(#clip-path)">
      <path id="パス_684" data-name="パス 684" d="M4548.307,2768.154v-.016l-3.2-17.445a2.622,2.622,0,0,0-2.621-2.623s-1.79-.229-4.175-.557-3.576-.536-4.946-1.668a.446.446,0,0,0-.054-.038,11.822,11.822,0,0,0,4.651-6.928,1.88,1.88,0,0,0,1.422-1.618l.638-2.368a2.081,2.081,0,0,0-1.661-2.411c.161-1.142.594-4.988-.447-7.1a.646.646,0,0,0-.635-.119c.557-.914.915-3.219-2.7-4.252s-10.647-2.623-13.588,1.47c-2.684,3.734-1.862,7.07-1.665,9.408q-.021.307-.021.619v.008a2.076,2.076,0,0,0-1.533,2.416l.665,2.271a1.981,1.981,0,0,0,1.57,1.69,12.208,12.208,0,0,0,4.3,6.847c-.719.478-1.863,1.2-6.016,1.657l-3.569.576a2.622,2.622,0,0,0-2.623,2.623l-3.369,17.544c0,.007,0,.013,0,.016Z" transform="translate(-4500.111 -2711.269)" fill="#fff"/>
    </g>
  </g>
</svg>
