<svg xmlns="http://www.w3.org/2000/svg" width="27.118" height="25.718" viewBox="0 0 27.118 25.718">
  <g id="グループ_7969" data-name="グループ 7969" transform="translate(-224.451 -120.671)">
    <path id="パス_579" data-name="パス 579" d="M9,45.268a2.282,2.282,0,0,0,2.283,2.283H31.835a2.282,2.282,0,0,0,2.283-2.283V27H9Z" transform="translate(216.451 97.838)" fill="rgba(0,0,0,0)" stroke="#fff" stroke-linecap="round" stroke-linejoin="round" stroke-width="2"/>
    <line id="線_8" data-name="線 8" x2="24.094" transform="translate(226.186 129.703)" fill="none" stroke="#fff" stroke-linecap="round" stroke-linejoin="round" stroke-width="2"/>
    <line id="線_9" data-name="線 9" y1="5.354" transform="translate(240.91 121.671)" fill="none" stroke="#fff" stroke-linecap="round" stroke-linejoin="round" stroke-width="2"/>
    <line id="線_10" data-name="線 10" y1="5.354" transform="translate(235.556 121.671)" fill="none" stroke="#fff" stroke-linecap="round" stroke-linejoin="round" stroke-width="2"/>
    <line id="線_11" data-name="線 11" y1="5.354" transform="translate(244.926 121.671)" fill="none" stroke="#fff" stroke-linecap="round" stroke-linejoin="round" stroke-width="2"/>
    <line id="線_12" data-name="線 12" y1="5.354" transform="translate(231.54 121.671)" fill="none" stroke="#fff" stroke-linecap="round" stroke-linejoin="round" stroke-width="2"/>
    <path id="パス_580" data-name="パス 580" d="M47.283,109.142A1.142,1.142,0,1,1,46.142,108a1.142,1.142,0,0,1,1.142,1.142" transform="translate(185.018 26.113)" fill="#fff" stroke="#fff" stroke-width="1"/>
    <path id="パス_581" data-name="パス 581" d="M47.283,145.142A1.142,1.142,0,1,1,46.142,144a1.142,1.142,0,0,1,1.142,1.142" transform="translate(185.018 -5.32)" fill="#fff" stroke="#fff" stroke-width="1"/>
    <path id="パス_582" data-name="パス 582" d="M83.283,109.142A1.142,1.142,0,1,1,82.142,108a1.142,1.142,0,0,1,1.142,1.142" transform="translate(153.584 26.113)" fill="#fff" stroke="#fff" stroke-width="1"/>
    <path id="パス_583" data-name="パス 583" d="M83.283,145.142A1.142,1.142,0,1,1,82.142,144a1.142,1.142,0,0,1,1.142,1.142" transform="translate(153.584 -5.32)" fill="#fff" stroke="#fff" stroke-width="1"/>
    <path id="パス_584" data-name="パス 584" d="M119.283,109.142A1.142,1.142,0,1,1,118.142,108a1.142,1.142,0,0,1,1.142,1.142" transform="translate(122.151 26.113)" fill="#fff" stroke="#fff" stroke-width="1"/>
    <path id="パス_585" data-name="パス 585" d="M119.283,145.142A1.142,1.142,0,1,1,118.142,144a1.142,1.142,0,0,1,1.142,1.142" transform="translate(122.151 -5.32)" fill="#fff" stroke="#fff" stroke-width="1"/>
    <path id="パス_586" data-name="パス 586" d="M155.283,109.142A1.142,1.142,0,1,1,154.142,108a1.142,1.142,0,0,1,1.142,1.142" transform="translate(90.718 26.113)" fill="#fff" stroke="#fff" stroke-width="1"/>
    <path id="パス_587" data-name="パス 587" d="M155.283,145.142A1.142,1.142,0,1,1,154.142,144a1.142,1.142,0,0,1,1.142,1.142" transform="translate(90.718 -5.32)" fill="#fff" stroke="#fff" stroke-width="1"/>
  </g>
</svg>
