<svg xmlns="http://www.w3.org/2000/svg" width="20.453" height="20.453" viewBox="0 0 20.453 20.453">
  <path id="icon" d="M9.391-12.7a1.914,1.914,0,0,0,0-2.712l-2.4-2.4a1.922,1.922,0,0,0-2.712,0L2.435-15.97a.48.48,0,0,0,0,.679L6.87-10.857a.48.48,0,0,0,.679,0ZM.853-14.388-9.637-3.9-10.484.956A.96.96,0,0,0-9.373,2.067l4.854-.851L5.971-9.275a.48.48,0,0,0,0-.679L1.537-14.388A.485.485,0,0,0,.853-14.388ZM-5.542-4.8a.557.557,0,0,1,0-.791L.61-11.739a.557.557,0,0,1,.791,0,.557.557,0,0,1,0,.791L-4.751-4.8A.557.557,0,0,1-5.542-4.8Zm-1.442,3.36h1.918V.013L-7.644.465-8.886-.778l.451-2.577h1.45Z" transform="translate(10.499 18.372)" fill="#994e20"/>
</svg>
