<svg xmlns="http://www.w3.org/2000/svg" width="24.043" height="24.041" viewBox="0 0 24.043 24.041">
  <g id="map" transform="translate(-208.833 -147.084)">
    <path id="パス_451" data-name="パス 451" d="M232.691,161.753l-4.323-9.516a1,1,0,0,0-.659-.551l-3.518-.95-1.563,3.05a2.487,2.487,0,0,1-.181.254l.933,5.589-4.989,1.342,1.022-6.707a1.59,1.59,0,0,1-.343-.478l-1.237-2.384-3.334-.9a1,1,0,0,0-1.161.521l-4.4,8.893a.986.986,0,0,0-.017.861.967.967,0,0,0,.65.547l7.346,1.969a.78.78,0,0,0,.247.043c.036,0,.056-.016.082-.016a.858.858,0,0,0,.178-.026h.026l7.056-1.9,7.089,1.9a.862.862,0,0,0,.26.043h.007a1,1,0,0,0,1.009-1.006A1.028,1.028,0,0,0,232.691,161.753Zm-16.325-.762-.02.086-5.081-1.362,3.5-7.066,2.753.742Zm9.021-1.424-1.1-6.73,2.447.659,3.334,7.32Z" transform="translate(0 7.786)" fill="#994e20"/>
    <path id="パス_452" data-name="パス 452" d="M215.957,147.084a5.016,5.016,0,0,0-4.385,7.419l3.5,6.809a.992.992,0,0,0,1.774,0L220.3,154.6a5.021,5.021,0,0,0-4.343-7.515Zm0,2.8a2.206,2.206,0,1,1-2.206,2.209A2.209,2.209,0,0,1,215.957,149.887Z" transform="translate(4.881 0)" fill="#994e20"/>
  </g>
</svg>
