<svg xmlns="http://www.w3.org/2000/svg" xmlns:xlink="http://www.w3.org/1999/xlink" width="56" height="56" viewBox="0 0 56 56">
  <defs>
    <clipPath id="clip-path">
      <circle id="de8a433a79b618c73909ef3d2c8eeb77" cx="28" cy="28" r="28" fill="none"/>
    </clipPath>
  </defs>
  <g id="グループ_8613" data-name="グループ 8613" transform="translate(-79 -1779)">
    <circle id="de8a433a79b618c73909ef3d2c8eeb77-2" data-name="de8a433a79b618c73909ef3d2c8eeb77" cx="28" cy="28" r="28" transform="translate(79 1779)" fill="#c77c7c"/>
    <g id="マスクグループ_2" data-name="マスクグループ 2" transform="translate(79 1779)" clip-path="url(#clip-path)">
      <path id="パス_685" data-name="パス 685" d="M5191.649,2776.7l-3.271-17.383a2.622,2.622,0,0,0-2.62-2.623,27.452,27.452,0,0,0-3.27-.636c-2.392-.383-2.344-.465-3.384-1.355,2.708-.229,5-.513,5-.513,2.146-.159,2.623-.318,2.464-3.179s-.229-10.3-2.7-15.658c-1.908-4.132-4.77-3.655-4.77-3.655-5.008-5.8-13.589-1.033-15.339,3.735s-1.908,13.114-2.066,15.736-.237,2.543,1.827,2.941a52.279,52.279,0,0,0,5.824.705,12.3,12.3,0,0,1-4.234,1.4,29.055,29.055,0,0,0-3.229.794,2.823,2.823,0,0,0-2.592,2.693l-3.31,17Z" transform="translate(-5145.212 -2719.812)" fill="#fff"/>
    </g>
  </g>
</svg>
