<svg xmlns="http://www.w3.org/2000/svg" width="19.05" height="16.13" viewBox="0 0 19.05 16.13">
  <g id="グループ_8652" data-name="グループ 8652" transform="translate(2467 -26.869)">
    <path id="パス_711" data-name="パス 711" d="M19.85,10.57H24.5a1.559,1.559,0,0,1,1.55,1.57v9.42a1.559,1.559,0,0,1-1.55,1.57H10.55A1.559,1.559,0,0,1,9,21.56V12.14a1.559,1.559,0,0,1,1.55-1.57H12.1L13.65,9H18.3Z" transform="translate(-2475 18.869)" fill="none" stroke="#8f512b" stroke-linecap="round" stroke-linejoin="round" stroke-width="2"/>
    <circle id="楕円形_4" data-name="楕円形 4" cx="3.5" cy="3.5" r="3.5" transform="translate(-2462 32)" fill="none" stroke="#8f512b" stroke-linecap="round" stroke-linejoin="round" stroke-width="2"/>
    <path id="パス_712" data-name="パス 712" d="M163.246,54.213a.73.73,0,1,1-1.032,0,.73.73,0,0,1,1.032,0" transform="translate(-2614.598 -22.483)" fill="#994e20" stroke="#8f512b" stroke-width="1"/>
  </g>
</svg>
